<mxfile host="app.diagrams.net" agent="Mozilla/5.0 (X11; Linux x86_64; rv:130.0) Gecko/20100101 Firefox/130.0" version="24.7.14">
  <diagram name="Page-1" id="yVVMKYb3bOIo5h-pwOtt">
    <mxGraphModel grid="1" page="1" gridSize="10" guides="1" tooltips="1" connect="1" arrows="1" fold="1" pageScale="1" pageWidth="850" pageHeight="1100" math="0" shadow="0">
      <root>
        <mxCell id="0" />
        <mxCell id="1" parent="0" />
        <mxCell id="trEgRuEXgAKlfwMl6baa-1" value="Residente" style="swimlane;childLayout=stackLayout;horizontal=1;startSize=50;horizontalStack=0;rounded=1;fontSize=14;fontStyle=0;strokeWidth=2;resizeParent=0;resizeLast=1;shadow=0;dashed=0;align=center;arcSize=4;whiteSpace=wrap;html=1;" vertex="1" parent="1">
          <mxGeometry x="40" y="70" width="160" height="120" as="geometry" />
        </mxCell>
        <mxCell id="trEgRuEXgAKlfwMl6baa-2" value="&lt;div&gt;+ Nombre&lt;/div&gt;&lt;div&gt;+ Cedula&lt;br&gt;&lt;/div&gt;" style="align=left;strokeColor=none;fillColor=none;spacingLeft=4;fontSize=12;verticalAlign=top;resizable=0;rotatable=0;part=1;html=1;" vertex="1" parent="trEgRuEXgAKlfwMl6baa-1">
          <mxGeometry y="50" width="160" height="70" as="geometry" />
        </mxCell>
        <mxCell id="trEgRuEXgAKlfwMl6baa-3" value="Apartamentos" style="swimlane;childLayout=stackLayout;horizontal=1;startSize=50;horizontalStack=0;rounded=1;fontSize=14;fontStyle=0;strokeWidth=2;resizeParent=0;resizeLast=1;shadow=0;dashed=0;align=center;arcSize=4;whiteSpace=wrap;html=1;" vertex="1" parent="1">
          <mxGeometry x="260" y="70" width="160" height="120" as="geometry" />
        </mxCell>
        <mxCell id="trEgRuEXgAKlfwMl6baa-4" value="&lt;div&gt;+ num&lt;/div&gt;&lt;div&gt;+ cantidad-de-personas&lt;/div&gt;&lt;div&gt;+monto-minimo&lt;/div&gt;&lt;div&gt;+ costos-extra&lt;br&gt;&lt;/div&gt;" style="align=left;strokeColor=none;fillColor=none;spacingLeft=4;fontSize=12;verticalAlign=top;resizable=0;rotatable=0;part=1;html=1;" vertex="1" parent="trEgRuEXgAKlfwMl6baa-3">
          <mxGeometry y="50" width="160" height="70" as="geometry" />
        </mxCell>
        <mxCell id="trEgRuEXgAKlfwMl6baa-5" value="Espacios-Comunes" style="swimlane;childLayout=stackLayout;horizontal=1;startSize=50;horizontalStack=0;rounded=1;fontSize=14;fontStyle=0;strokeWidth=2;resizeParent=0;resizeLast=1;shadow=0;dashed=0;align=center;arcSize=4;whiteSpace=wrap;html=1;" vertex="1" parent="1">
          <mxGeometry x="480" y="70" width="160" height="120" as="geometry" />
        </mxCell>
        <mxCell id="trEgRuEXgAKlfwMl6baa-6" value="&lt;div&gt;+ nombre&lt;/div&gt;&lt;div&gt;+ id&lt;/div&gt;&lt;div&gt;+ Reservado (bool)&lt;/div&gt;" style="align=left;strokeColor=none;fillColor=none;spacingLeft=4;fontSize=12;verticalAlign=top;resizable=0;rotatable=0;part=1;html=1;" vertex="1" parent="trEgRuEXgAKlfwMl6baa-5">
          <mxGeometry y="50" width="160" height="70" as="geometry" />
        </mxCell>
        <mxCell id="trEgRuEXgAKlfwMl6baa-7" value="Cuenta" style="swimlane;childLayout=stackLayout;horizontal=1;startSize=50;horizontalStack=0;rounded=1;fontSize=14;fontStyle=0;strokeWidth=2;resizeParent=0;resizeLast=1;shadow=0;dashed=0;align=center;arcSize=4;whiteSpace=wrap;html=1;" vertex="1" parent="1">
          <mxGeometry x="700" y="70" width="160" height="120" as="geometry" />
        </mxCell>
        <mxCell id="trEgRuEXgAKlfwMl6baa-8" value="&lt;div&gt;+id&lt;/div&gt;&lt;div&gt;+propietario&lt;/div&gt;&lt;div&gt;+ fecha&lt;/div&gt;&lt;div&gt;+ monto-total&lt;br&gt;&lt;/div&gt;" style="align=left;strokeColor=none;fillColor=none;spacingLeft=4;fontSize=12;verticalAlign=top;resizable=0;rotatable=0;part=1;html=1;" vertex="1" parent="trEgRuEXgAKlfwMl6baa-7">
          <mxGeometry y="50" width="160" height="70" as="geometry" />
        </mxCell>
        <mxCell id="trEgRuEXgAKlfwMl6baa-9" value="PQR" style="swimlane;childLayout=stackLayout;horizontal=1;startSize=50;horizontalStack=0;rounded=1;fontSize=14;fontStyle=0;strokeWidth=2;resizeParent=0;resizeLast=1;shadow=0;dashed=0;align=center;arcSize=4;whiteSpace=wrap;html=1;" vertex="1" parent="1">
          <mxGeometry x="920" y="70" width="160" height="120" as="geometry" />
        </mxCell>
        <mxCell id="trEgRuEXgAKlfwMl6baa-10" value="&lt;div&gt;+ id&lt;/div&gt;&lt;div&gt;+ mensaje&lt;/div&gt;&lt;div&gt;+ fecha&lt;br&gt;&lt;/div&gt;" style="align=left;strokeColor=none;fillColor=none;spacingLeft=4;fontSize=12;verticalAlign=top;resizable=0;rotatable=0;part=1;html=1;" vertex="1" parent="trEgRuEXgAKlfwMl6baa-9">
          <mxGeometry y="50" width="160" height="70" as="geometry" />
        </mxCell>
        <mxCell id="trEgRuEXgAKlfwMl6baa-11" value="Invitados" style="swimlane;childLayout=stackLayout;horizontal=1;startSize=50;horizontalStack=0;rounded=1;fontSize=14;fontStyle=0;strokeWidth=2;resizeParent=0;resizeLast=1;shadow=0;dashed=0;align=center;arcSize=4;whiteSpace=wrap;html=1;" vertex="1" parent="1">
          <mxGeometry x="40" y="280" width="160" height="120" as="geometry" />
        </mxCell>
        <mxCell id="trEgRuEXgAKlfwMl6baa-12" value="&lt;div&gt;+ nombre&lt;/div&gt;&lt;div&gt;+ cedula&lt;/div&gt;&lt;div&gt;+ tiempo-visita&lt;br&gt;&lt;/div&gt;" style="align=left;strokeColor=none;fillColor=none;spacingLeft=4;fontSize=12;verticalAlign=top;resizable=0;rotatable=0;part=1;html=1;" vertex="1" parent="trEgRuEXgAKlfwMl6baa-11">
          <mxGeometry y="50" width="160" height="70" as="geometry" />
        </mxCell>
        <mxCell id="trEgRuEXgAKlfwMl6baa-13" value="Personal" style="swimlane;childLayout=stackLayout;horizontal=1;startSize=50;horizontalStack=0;rounded=1;fontSize=14;fontStyle=0;strokeWidth=2;resizeParent=0;resizeLast=1;shadow=0;dashed=0;align=center;arcSize=4;whiteSpace=wrap;html=1;" vertex="1" parent="1">
          <mxGeometry x="260" y="280" width="160" height="120" as="geometry" />
        </mxCell>
        <mxCell id="trEgRuEXgAKlfwMl6baa-14" value="&lt;div&gt;+ nombre&lt;/div&gt;&lt;div&gt;+ cedula&lt;/div&gt;&lt;div&gt;+ rol&lt;br&gt;&lt;/div&gt;" style="align=left;strokeColor=none;fillColor=none;spacingLeft=4;fontSize=12;verticalAlign=top;resizable=0;rotatable=0;part=1;html=1;" vertex="1" parent="trEgRuEXgAKlfwMl6baa-13">
          <mxGeometry y="50" width="160" height="70" as="geometry" />
        </mxCell>
        <mxCell id="trEgRuEXgAKlfwMl6baa-15" value="Vehiculo" style="swimlane;childLayout=stackLayout;horizontal=1;startSize=50;horizontalStack=0;rounded=1;fontSize=14;fontStyle=0;strokeWidth=2;resizeParent=0;resizeLast=1;shadow=0;dashed=0;align=center;arcSize=4;whiteSpace=wrap;html=1;" vertex="1" parent="1">
          <mxGeometry x="480" y="280" width="160" height="120" as="geometry" />
        </mxCell>
        <mxCell id="trEgRuEXgAKlfwMl6baa-16" value="&lt;div&gt;+ placa&lt;/div&gt;&lt;div&gt;+ tipo&lt;/div&gt;&lt;div&gt;+ tiempo-estadia&lt;/div&gt;&lt;div&gt;+ cobro-por-exceso&lt;br&gt;&lt;/div&gt;" style="align=left;strokeColor=none;fillColor=none;spacingLeft=4;fontSize=12;verticalAlign=top;resizable=0;rotatable=0;part=1;html=1;" vertex="1" parent="trEgRuEXgAKlfwMl6baa-15">
          <mxGeometry y="50" width="160" height="70" as="geometry" />
        </mxCell>
        <mxCell id="trEgRuEXgAKlfwMl6baa-17" value="Bloque" style="swimlane;childLayout=stackLayout;horizontal=1;startSize=50;horizontalStack=0;rounded=1;fontSize=14;fontStyle=0;strokeWidth=2;resizeParent=0;resizeLast=1;shadow=0;dashed=0;align=center;arcSize=4;whiteSpace=wrap;html=1;" vertex="1" parent="1">
          <mxGeometry x="700" y="280" width="160" height="120" as="geometry" />
        </mxCell>
        <mxCell id="trEgRuEXgAKlfwMl6baa-18" value="&lt;div&gt;+ num&lt;/div&gt;&lt;div&gt;+ cantidad-apartamentos&lt;br&gt;&lt;/div&gt;" style="align=left;strokeColor=none;fillColor=none;spacingLeft=4;fontSize=12;verticalAlign=top;resizable=0;rotatable=0;part=1;html=1;" vertex="1" parent="trEgRuEXgAKlfwMl6baa-17">
          <mxGeometry y="50" width="160" height="70" as="geometry" />
        </mxCell>
        <mxCell id="trEgRuEXgAKlfwMl6baa-19" value="Horario" style="swimlane;childLayout=stackLayout;horizontal=1;startSize=50;horizontalStack=0;rounded=1;fontSize=14;fontStyle=0;strokeWidth=2;resizeParent=0;resizeLast=1;shadow=0;dashed=0;align=center;arcSize=4;whiteSpace=wrap;html=1;" vertex="1" parent="1">
          <mxGeometry x="920" y="280" width="160" height="120" as="geometry" />
        </mxCell>
        <mxCell id="trEgRuEXgAKlfwMl6baa-20" value="&lt;div&gt;+ fecha &lt;br&gt;&lt;/div&gt;&lt;div&gt;+ hora-inicio&lt;/div&gt;&lt;div&gt;+ hora-fin&lt;/div&gt;&lt;div&gt;+ beneficiario&lt;br&gt;&lt;/div&gt;" style="align=left;strokeColor=none;fillColor=none;spacingLeft=4;fontSize=12;verticalAlign=top;resizable=0;rotatable=0;part=1;html=1;" vertex="1" parent="trEgRuEXgAKlfwMl6baa-19">
          <mxGeometry y="50" width="160" height="70" as="geometry" />
        </mxCell>
      </root>
    </mxGraphModel>
  </diagram>
</mxfile>
